<?xml version="1.0" standalone="no"?>
<!DOCTYPE svg PUBLIC "-//W3C//DTD SVG 20010904//EN"
 "http://www.w3.org/TR/2001/REC-SVG-20010904/DTD/svg10.dtd">
<svg version="1.0" xmlns="http://www.w3.org/2000/svg"
 width="1040.000000pt" height="1040.000000pt" viewBox="0 0 1040.000000 1040.000000"
 preserveAspectRatio="xMidYMid meet">
<metadata>
Created by potrace 1.11, written by Peter Selinger 2001-2013
</metadata>
<g transform="translate(0.000000,1040.000000) scale(0.100000,-0.100000)"
fill="#000000" stroke="none">
<path d="M4981 10059 c-40 -15 -87 -31 -104 -35 -18 -3 -43 -14 -57 -23 -14
-10 -44 -23 -66 -30 -41 -13 -43 -13 -140 40 -97 52 -100 53 -199 57 -106 4
-282 -17 -310 -38 -8 -6 -80 -32 -95 -35 -34 -5 -69 -21 -99 -44 -20 -15 -52
-34 -71 -41 -19 -7 -40 -17 -47 -23 -7 -5 -45 -15 -85 -24 -88 -18 -166 -55
-193 -93 -54 -76 -82 -108 -116 -132 -35 -25 -41 -26 -185 -27 -82 0 -162 -5
-179 -10 -86 -28 -170 -64 -260 -113 -97 -51 -101 -55 -152 -133 -28 -44 -66
-100 -83 -124 -18 -25 -39 -61 -47 -80 -8 -19 -25 -49 -37 -65 -13 -17 -26
-38 -29 -47 -3 -9 -28 -27 -56 -40 -28 -12 -51 -26 -51 -29 0 -4 -24 -32 -52
-63 -115 -121 -198 -238 -198 -280 0 -13 -9 -59 -20 -102 -11 -43 -19 -107
-19 -144 1 -42 -5 -81 -16 -106 -12 -29 -16 -64 -14 -125 1 -54 -3 -95 -11
-113 -11 -23 -11 -48 -2 -135 16 -146 24 -185 47 -212 14 -17 55 -144 55 -171
0 -10 15 -54 34 -98 28 -66 35 -99 40 -179 5 -68 3 -107 -5 -128 -7 -16 -13
-42 -15 -59 -1 -16 -5 -41 -8 -55 -6 -20 2 -35 37 -75 39 -44 44 -54 40 -89
-5 -49 -18 -73 -55 -104 -16 -14 -27 -31 -24 -38 3 -7 -2 -27 -11 -44 -25 -51
-12 -108 33 -148 26 -22 41 -29 48 -22 13 13 46 13 46 0 0 -5 9 -10 20 -10 21
0 29 -20 8 -20 -7 -1 -3 -9 9 -19 13 -11 23 -24 23 -29 0 -5 7 -15 16 -23 12
-10 14 -25 8 -76 -4 -44 -3 -63 5 -63 6 0 11 -11 11 -25 0 -18 4 -23 15 -19 8
4 15 1 15 -6 0 -6 4 -8 10 -5 5 3 10 1 10 -4 0 -6 -4 -11 -10 -11 -17 0 -11
-28 8 -33 14 -4 14 -5 -3 -6 -17 -1 -18 -3 -5 -11 13 -9 13 -12 -4 -25 -18
-14 -18 -15 -1 -41 9 -14 26 -29 36 -31 11 -3 27 -19 35 -35 8 -16 19 -26 24
-23 5 3 11 -4 15 -15 3 -11 11 -20 16 -20 5 0 9 -8 9 -17 0 -27 25 -68 38 -66
7 2 12 -2 12 -8 0 -8 4 -8 14 0 11 9 15 9 19 -1 4 -8 6 -7 6 4 1 9 8 21 17 26
20 11 31 63 41 187 14 178 4 485 -17 545 -5 15 3 96 10 104 5 5 6 15 3 22 -3
8 7 34 21 58 14 25 26 56 26 70 0 14 5 26 10 26 6 0 10 7 10 16 0 8 -4 12 -10
9 -5 -3 -10 -2 -10 4 0 5 5 13 10 16 13 8 11 125 -3 143 -6 7 -6 12 0 12 13 0
10 94 -3 111 -15 18 -8 61 11 72 11 6 12 14 4 34 -5 14 -6 29 -1 32 11 8 14
59 3 66 -5 3 2 28 15 56 14 27 22 54 19 59 -3 6 1 26 11 45 15 32 25 40 47 36
4 0 7 8 7 19 0 11 7 20 15 20 18 0 19 5 4 32 -10 18 -9 20 5 15 10 -4 16 -1
16 9 0 8 5 12 10 9 6 -3 18 2 28 11 16 17 16 18 0 11 -22 -8 -23 -1 -4 18 7 8
16 11 20 8 3 -4 6 -1 6 6 0 7 7 20 16 28 8 9 13 25 11 35 -4 15 -3 17 8 8 14
-12 31 2 21 18 -2 4 5 9 16 9 24 2 58 31 58 48 0 7 7 16 16 19 8 3 12 11 8 17
-4 8 1 9 17 4 13 -4 21 -4 17 0 -4 4 3 16 15 26 12 10 17 18 10 19 -6 0 -14
-6 -16 -12 -4 -10 -6 -10 -6 0 -1 8 8 16 19 19 11 3 17 9 14 14 -3 5 -10 7
-15 4 -5 -4 -4 5 3 19 10 24 16 26 77 26 69 0 83 5 95 30 19 40 33 59 40 53 4
-4 10 -3 14 3 4 6 26 13 49 16 33 5 40 3 36 -8 -4 -10 0 -12 11 -8 9 3 16 11
16 18 0 6 4 6 9 -3 7 -11 13 -9 30 8 12 12 26 19 31 16 6 -4 10 -1 10 5 0 6
10 8 26 4 20 -5 26 -2 31 15 6 25 18 27 27 6 3 -8 10 -15 16 -15 6 0 8 5 5 10
-6 10 43 63 74 79 9 5 28 8 44 7 15 -1 27 2 27 6 0 4 9 8 20 8 11 0 20 4 20 9
0 5 12 12 28 15 41 10 92 39 92 53 0 16 36 17 46 2 4 -8 -1 -9 -17 -4 -19 5
-17 2 8 -15 20 -13 30 -27 26 -33 -5 -9 -3 -9 8 0 8 6 19 13 24 15 6 1 9 11 8
21 -2 10 2 15 7 12 6 -3 10 4 10 16 0 18 -2 19 -15 9 -13 -11 -14 -10 -9 5 5
13 4 16 -4 11 -7 -4 -12 -2 -12 6 0 9 -3 9 -10 -2 -6 -10 -10 -11 -10 -2 0 22
-2 27 -12 40 -6 7 -8 15 -5 18 8 9 -21 36 -31 30 -5 -3 -15 6 -22 20 -8 14
-20 22 -27 20 -10 -4 -10 1 1 23 17 32 72 52 61 22 -4 -10 2 -7 19 8 17 16 31
21 45 16 12 -3 19 -10 16 -15 -3 -5 3 -11 12 -14 17 -5 33 -4 72 6 8 1 20 -7
26 -19 8 -15 15 -19 22 -12 7 7 10 -1 11 -23 0 -18 7 -37 14 -43 17 -13 17
-96 0 -114 -10 -11 -11 -16 -1 -21 6 -4 8 -13 5 -19 -10 -15 -1 -14 33 4 30
15 41 39 41 93 0 17 4 32 9 32 9 0 34 54 35 77 1 6 5 15 8 19 12 12 -2 82 -38
189 -19 55 -35 109 -37 120 -2 11 -10 40 -17 65 -7 25 -12 53 -11 62 1 10 -3
26 -8 37 -8 15 -6 25 10 45 11 14 26 26 34 26 19 0 28 27 31 94 4 62 15 83 50
96 18 7 22 15 18 39 -5 30 2 36 42 30 4 0 10 5 14 11 5 8 15 4 33 -14 14 -14
31 -26 36 -26 5 0 8 -10 5 -22 -3 -13 -7 -35 -8 -49 -2 -14 -6 -31 -10 -37 -4
-7 -4 -12 1 -12 4 0 2 -4 -6 -9 -17 -11 -24 -46 -16 -78 6 -25 29 -31 41 -11
5 8 2 9 -9 5 -38 -14 -9 22 39 49 13 7 28 8 44 2 23 -9 24 -10 8 -22 -10 -7
-14 -17 -10 -21 4 -4 1 -6 -7 -3 -8 2 -26 -7 -41 -21 -23 -22 -25 -29 -16 -46
5 -11 9 -23 8 -27 -1 -4 7 -12 18 -18 20 -10 20 -11 -3 -45 -12 -19 -30 -38
-40 -41 -13 -4 -17 -14 -15 -40 2 -31 9 -39 30 -35 15 2 46 -32 41 -45 -3 -8
1 -14 10 -14 18 0 26 -10 33 -42 11 -49 10 -53 -16 -50 -14 2 -22 1 -19 -3 4
-3 -4 -17 -18 -31 -13 -13 -22 -28 -19 -33 3 -5 -1 -11 -9 -15 -8 -3 -15 -10
-15 -15 0 -6 7 -8 15 -5 8 4 15 1 15 -5 0 -6 -5 -11 -11 -11 -6 0 -9 -7 -6
-15 4 -8 2 -17 -2 -20 -5 -3 -7 -14 -4 -25 4 -14 0 -20 -11 -20 -10 0 -14 -4
-11 -10 3 -5 0 -10 -8 -10 -23 0 -52 -50 -40 -69 5 -9 9 -29 8 -46 -1 -16 2
-35 7 -42 6 -7 5 -20 -1 -32 -6 -11 -11 -22 -11 -25 0 -9 24 -2 33 9 4 6 7 1
6 -10 -6 -60 31 -96 61 -60 10 12 10 15 -1 15 -8 0 -1 7 14 15 21 11 34 12 48
5 13 -7 19 -7 19 0 0 5 11 10 24 10 13 0 26 5 28 11 3 9 9 9 25 0 14 -7 24 -7
28 -1 3 5 12 7 20 3 8 -3 15 -1 15 5 0 15 31 24 45 12 9 -8 14 -7 17 2 4 10
10 9 29 -4 19 -12 35 -14 67 -8 28 5 42 4 42 -4 0 -6 7 0 16 13 13 18 18 20
25 10 7 -11 9 -11 9 1 0 13 2 13 10 0 7 -12 11 -12 28 3 19 17 19 17 14 -8 -3
-21 0 -27 17 -32 11 -3 21 -9 21 -13 0 -4 7 -11 16 -14 9 -3 12 -2 9 5 -4 6 8
10 32 9 21 0 45 1 53 1 18 2 81 -8 101 -16 8 -3 37 1 65 8 42 11 53 11 63 0 8
-9 17 -10 30 -4 38 21 170 12 230 -15 23 -10 41 -21 41 -26 0 -4 7 -8 15 -8
10 0 15 -10 16 -27 0 -26 17 -78 18 -60 1 11 31 -19 31 -31 0 -12 29 -24 41
-16 17 10 20 -22 4 -60 -9 -21 -12 -36 -8 -33 4 2 18 -6 31 -19 12 -13 18 -24
12 -24 -5 0 -10 -7 -10 -16 0 -8 5 -12 10 -9 6 4 10 -8 10 -29 0 -20 -5 -36
-11 -36 -8 0 -8 -5 1 -15 7 -8 16 -12 21 -9 5 3 9 0 9 -6 0 -6 11 -16 25 -22
14 -6 25 -17 25 -24 0 -19 21 -29 30 -14 5 8 9 7 13 -4 4 -9 14 -16 23 -16 10
0 15 -3 11 -6 -8 -8 16 -33 26 -27 4 2 7 -3 7 -11 0 -9 7 -16 15 -16 8 0 15
-7 15 -16 0 -12 6 -15 21 -11 16 4 18 3 9 -8 -8 -10 -7 -14 2 -18 7 -2 1 -8
-14 -12 -16 -4 -28 -14 -28 -22 0 -8 5 -11 10 -8 6 4 15 -7 21 -24 7 -19 15
-28 25 -24 8 3 14 -1 14 -11 0 -9 -5 -16 -12 -16 -6 0 -8 -3 -5 -6 3 -4 2 -15
-4 -26 -14 -26 -6 -32 21 -16 19 11 23 11 27 0 4 -10 9 -8 19 5 7 10 14 13 14
7 0 -7 7 -15 16 -18 9 -4 13 -2 8 5 -4 7 -1 10 7 7 8 -3 13 -12 11 -22 -2 -9
1 -16 6 -16 5 0 8 -10 6 -22 -1 -13 -3 -31 -3 -40 -1 -10 -7 -18 -15 -18 -8 0
-16 -7 -20 -15 -3 -8 -1 -15 4 -15 6 0 10 5 10 10 0 6 10 10 23 9 20 0 20 -1
3 -8 -14 -5 -16 -10 -8 -15 7 -4 10 -13 6 -19 -3 -7 1 -4 9 6 18 22 22 22 24
-3 1 -13 -4 -20 -17 -20 -17 0 -38 -46 -25 -58 3 -3 5 0 5 7 0 7 5 9 11 6 6
-5 3 -13 -10 -22 -22 -15 -29 -43 -10 -43 6 0 9 -7 5 -15 -3 -8 4 -21 15 -29
13 -9 16 -16 10 -21 -6 -3 -11 -1 -11 6 0 7 -3 9 -7 5 -5 -4 0 -14 11 -21 11
-8 15 -19 10 -27 -4 -7 -4 -10 0 -6 7 5 46 -25 46 -36 0 -2 -12 -1 -27 1 -24
4 -26 3 -10 -7 14 -9 15 -15 7 -25 -8 -9 -7 -17 4 -28 8 -8 13 -17 10 -19 -2
-3 2 -10 10 -17 11 -9 17 -8 29 4 9 8 19 15 23 15 5 0 3 -5 -4 -12 -16 -16
-15 -39 1 -32 12 4 25 -14 43 -61 13 -35 12 -44 -2 -38 -12 4 -13 1 -3 -21 7
-14 16 -26 22 -26 5 0 7 -7 3 -15 -3 -8 -1 -15 4 -15 6 0 10 -8 10 -18 0 -11
9 -29 20 -42 18 -21 19 -25 6 -39 -9 -8 -36 -16 -62 -17 -25 -1 -52 -5 -60 -8
-8 -3 -25 -1 -38 4 -17 6 -26 5 -29 -3 -2 -7 -27 -12 -68 -11 -35 0 -67 -4
-70 -9 -4 -5 -35 -11 -70 -13 -110 -8 -133 -15 -162 -48 -22 -25 -4 -39 31
-23 19 9 26 9 29 0 3 -8 12 -9 28 -3 12 5 26 6 30 2 4 -4 28 -7 53 -7 30 0 47
-4 48 -12 3 -26 5 -28 14 -13 6 10 10 11 10 3 0 -7 3 -12 8 -12 30 5 31 -4 2
-20 -19 -10 -41 -30 -48 -45 -7 -14 -18 -26 -23 -26 -6 0 -7 -4 -4 -10 3 -5
-1 -10 -10 -10 -9 0 -14 -4 -10 -9 8 -14 -9 -21 -25 -11 -11 7 -22 1 -39 -18
-22 -25 -24 -26 -18 -4 3 12 1 22 -4 22 -5 0 -9 -6 -9 -13 0 -7 -9 -18 -20
-25 -14 -9 -20 -9 -20 -1 0 8 -4 8 -12 1 -13 -10 -65 -9 -75 2 -4 3 -12 -3
-20 -14 -8 -11 -22 -20 -32 -20 -10 0 -24 -7 -31 -15 -7 -8 -23 -15 -36 -15
-13 0 -24 -6 -24 -13 0 -16 84 -58 102 -52 7 3 20 0 28 -5 24 -16 -7 -31 -50
-24 -19 2 -46 5 -60 5 -47 2 -235 -32 -310 -56 -41 -13 -79 -20 -84 -15 -24
24 94 109 153 110 9 0 25 7 35 15 34 26 5 40 -75 37 -62 -2 -69 0 -69 17 0 10
12 27 28 36 15 10 52 40 83 67 37 31 66 48 83 48 14 0 26 3 26 8 0 4 15 14 33
21 17 8 38 21 45 28 7 7 24 13 37 13 13 0 26 4 30 10 3 5 12 7 20 3 9 -3 21 0
29 6 7 6 21 9 30 5 9 -4 16 -1 16 6 0 8 9 10 25 6 23 -6 24 -5 13 19 -7 17
-17 24 -26 20 -9 -3 -18 -2 -21 2 -3 5 -60 5 -126 1 -125 -8 -142 -10 -240
-29 -33 -7 -72 -12 -87 -12 -15 0 -25 -3 -23 -7 4 -7 -35 -18 -85 -25 -57 -8
-232 -72 -238 -87 -2 -4 -8 -8 -14 -8 -18 0 -118 -96 -118 -114 0 -6 -9 -19
-20 -29 -12 -10 -18 -22 -15 -27 3 -5 -3 -11 -12 -14 -23 -7 -47 -61 -38 -84
3 -9 6 -19 6 -22 1 -3 6 -11 12 -19 10 -12 9 -14 -5 -9 -14 6 -15 4 -3 -19 7
-14 11 -32 8 -39 -3 -8 0 -14 7 -14 8 0 10 -9 6 -25 -8 -31 13 -106 33 -121 8
-7 21 -10 28 -7 9 4 11 0 7 -11 -5 -12 -2 -15 12 -9 11 4 15 3 11 -4 -4 -6 3
-19 14 -29 18 -16 19 -16 13 -1 -6 16 -4 16 25 0 17 -10 26 -19 21 -21 -14 -5
-13 -22 1 -22 7 0 17 -7 24 -17 7 -9 17 -13 24 -9 8 5 7 11 -4 22 -8 9 -12 21
-8 27 5 8 8 8 11 -1 5 -15 22 -16 22 -1 0 12 -26 40 -32 34 -2 -2 -4 11 -5 30
-1 37 14 55 70 84 36 18 57 13 57 -15 0 -19 21 -22 75 -13 28 4 55 8 61 8 6 1
20 19 33 41 30 54 62 54 95 3 29 -46 73 -83 101 -84 11 0 52 -3 90 -6 96 -7
122 -6 153 9 29 15 62 17 61 6 -3 -30 -14 -48 -28 -48 -9 0 -22 -5 -28 -11 -5
-5 -31 -12 -57 -15 -26 -3 -62 -14 -80 -24 -27 -17 -56 -26 -88 -29 -5 -1 -8
-12 -8 -26 0 -14 3 -25 8 -24 14 2 52 -13 52 -21 0 -4 9 -10 20 -13 14 -4 20
0 21 11 0 11 2 13 6 4 4 -10 8 -10 19 -1 12 10 13 9 8 -5 -5 -12 0 -16 17 -17
13 0 40 -2 59 -4 30 -3 111 13 160 32 8 3 21 7 29 9 7 1 25 13 40 26 14 13 42
32 61 42 19 11 39 26 43 33 5 7 12 11 18 8 5 -4 9 -1 9 4 0 6 6 11 14 11 18 0
23 8 30 42 2 15 9 35 15 46 6 12 11 34 11 50 0 31 9 37 80 53 113 24 169 43
205 67 22 15 55 34 74 42 30 12 66 41 157 125 12 11 30 25 40 31 11 6 21 21
22 34 2 13 10 30 18 38 8 8 12 22 9 33 -8 24 13 25 32 2 14 -17 14 -17 9 -1
-3 11 2 22 14 28 28 15 29 13 20 -21 -8 -27 -6 -32 10 -36 22 -6 26 -19 9 -25
-7 -2 -4 -16 10 -38 20 -33 21 -34 22 -10 0 14 3 20 5 14 3 -7 13 -10 24 -7
24 6 57 -63 42 -88 -6 -9 -6 -22 -2 -29 5 -8 2 -23 -7 -37 -11 -17 -13 -27 -4
-36 6 -8 8 -17 4 -20 -11 -12 37 -8 60 4 30 16 36 27 31 62 -2 16 3 39 11 50
8 12 15 28 15 36 0 19 80 95 123 118 36 19 192 29 202 13 3 -5 -1 -48 -9 -96
-9 -48 -13 -90 -11 -94 3 -4 0 -55 -7 -112 -10 -91 -9 -109 5 -137 22 -45 31
-114 18 -139 -12 -23 -30 -23 -98 -4 -61 18 -69 31 -77 117 -4 42 -11 84 -16
93 -5 10 -12 26 -16 37 -6 18 -7 17 -16 -10 -8 -26 -10 -90 -7 -200 1 -50 -5
-90 -16 -97 -6 -5 -5 -8 3 -8 7 0 12 -15 12 -40 0 -23 7 -52 16 -66 9 -14 19
-37 21 -52 2 -15 6 -38 8 -52 2 -14 5 -47 6 -75 1 -27 7 -59 12 -70 6 -11 10
-36 8 -55 -2 -33 22 -109 39 -120 15 -10 70 -153 70 -184 0 -17 5 -49 10 -71
7 -32 11 -155 8 -313 0 -12 3 -30 7 -40 5 -9 9 -60 10 -112 1 -52 6 -111 11
-130 7 -26 7 -42 -3 -60 -7 -14 -13 -35 -13 -47 0 -12 -4 -24 -9 -28 -15 -9
-44 -106 -47 -155 -1 -25 -6 -69 -10 -99 l-7 -53 26 16 c14 10 65 59 114 110
48 51 114 112 146 136 61 45 96 95 79 112 -5 5 -38 20 -73 33 -86 31 -88 36
-88 304 -1 249 9 328 50 384 16 22 29 52 29 66 0 15 9 43 20 64 11 20 20 44
20 52 0 8 8 34 19 57 27 64 68 196 80 258 5 30 17 91 26 135 22 113 33 249 28
352 -2 48 -5 106 -6 128 -2 43 15 73 86 153 60 68 79 122 71 206 -9 103 -23
158 -44 181 -21 22 -45 88 -55 150 -11 66 -15 75 -46 90 -42 22 -37 53 20 128
l48 64 8 112 c3 62 4 170 0 241 -5 91 -4 138 4 158 9 22 9 35 0 58 -7 16 -13
34 -14 39 0 6 -6 23 -13 38 -7 16 -12 37 -12 47 0 10 -9 21 -19 25 -21 6 -24
17 -42 143 -13 91 -8 173 15 297 33 171 16 327 -49 455 -13 25 -33 79 -45 119
-12 41 -42 109 -65 150 -24 42 -49 96 -55 121 -15 57 -52 130 -78 153 -11 10
-41 26 -68 36 -128 49 -238 113 -289 171 -11 12 -40 36 -65 53 -25 16 -59 43
-77 60 -18 17 -48 40 -67 51 -19 12 -76 50 -128 85 -51 35 -110 69 -131 77
-20 7 -52 24 -70 37 -17 14 -48 27 -67 30 -19 3 -69 10 -110 17 -48 7 -137 8
-251 4 -232 -9 -237 -7 -530 130 -31 14 -61 26 -66 26 -6 0 -21 8 -34 19 -13
10 -60 28 -104 40 -44 12 -91 26 -105 31 -30 11 -120 22 -215 26 -38 1 -84 4
-101 7 -18 2 -59 -7 -103 -24z m-920 -1158 c-8 -6 -6 -15 9 -33 18 -23 18 -27
4 -39 -13 -10 -17 -10 -24 1 -4 7 -15 10 -23 7 -11 -4 -14 -1 -10 9 3 7 0 14
-7 14 -6 0 -8 5 -3 13 4 6 8 15 9 20 2 12 3 12 31 14 14 0 21 -2 14 -6z m969
-471 c10 -5 32 -11 49 -12 25 -2 31 -6 29 -22 -2 -11 -9 -21 -17 -24 -9 -3
-11 0 -6 8 6 10 4 11 -11 5 -10 -5 -38 -10 -61 -13 -34 -3 -42 -1 -45 15 -3
18 19 53 35 53 5 0 17 -4 27 -10z m-970 -70 c0 -5 -2 -10 -4 -10 -3 0 -8 5
-11 10 -3 6 -1 10 4 10 6 0 11 -4 11 -10z m440 0 c-20 -13 -33 -13 -25 0 3 6
14 10 23 10 15 0 15 -2 2 -10z m-933 -85 c-8 -19 -37 -19 -63 0 -18 14 -18 14
9 15 15 0 27 -6 27 -12 0 -7 5 -5 11 5 12 21 24 15 16 -8z m-87 -85 c0 -5 -4
-10 -10 -10 -5 0 -10 5 -10 10 0 6 5 10 10 10 6 0 10 -4 10 -10z m2855 -1019
c3 -5 1 -12 -5 -16 -5 -3 -10 1 -10 9 0 18 6 21 15 7z m735 -935 c0 -2 -7 -6
-15 -10 -8 -3 -15 -1 -15 4 0 6 7 10 15 10 8 0 15 -2 15 -4z m-1093 -352 c-3
-3 -12 -4 -19 -1 -8 3 -5 6 6 6 11 1 17 -2 13 -5z m-43 -19 c-4 -8 -10 -15
-15 -15 -4 0 -6 7 -3 15 4 8 10 15 15 15 4 0 6 -7 3 -15z"/>
<path d="M6158 7353 c-21 -5 -24 -23 -4 -23 8 0 22 -7 30 -16 9 -8 16 -11 16
-5 0 5 13 8 30 6 36 -4 43 5 20 25 -16 15 -60 21 -92 13z"/>
<path d="M6450 6719 c0 -5 5 -7 10 -4 6 3 10 8 10 11 0 2 -4 4 -10 4 -5 0 -10
-5 -10 -11z"/>
<path d="M5940 6530 c0 -5 5 -10 11 -10 5 0 7 5 4 10 -3 6 -8 10 -11 10 -2 0
-4 -4 -4 -10z"/>
<path d="M3518 6320 c-7 -4 -39 -7 -70 -6 -39 1 -58 -3 -58 -11 0 -6 12 -11
28 -11 31 1 75 -11 82 -23 3 -4 11 -9 19 -11 8 -2 25 -13 39 -25 13 -13 28
-20 32 -18 5 3 17 -6 28 -20 11 -14 25 -25 32 -25 7 0 34 -12 61 -27 55 -31
60 -52 14 -68 -31 -10 -55 -28 -55 -40 0 -4 7 -5 15 -1 8 3 15 1 15 -4 0 -6
10 -10 23 -10 12 -1 33 -7 46 -14 18 -10 21 -15 10 -21 -18 -12 -145 -34 -198
-34 -46 -1 -47 1 -25 53 8 20 6 20 -121 1 -11 -2 -40 -6 -64 -9 -23 -3 -47 -8
-51 -11 -5 -3 -11 -1 -15 5 -4 7 -12 7 -24 0 -10 -5 -45 -12 -77 -15 -32 -3
-66 -7 -75 -10 -10 -3 -21 0 -25 6 -4 8 -3 9 4 5 7 -4 12 -2 12 5 0 7 -8 9
-21 6 -32 -8 -52 2 -38 19 9 11 8 14 -4 14 -8 0 -18 -6 -20 -12 -4 -10 -6 -10
-6 0 -1 6 -8 12 -16 12 -8 0 -15 5 -15 10 0 6 -7 10 -16 10 -14 0 -14 -3 -4
-15 10 -12 10 -15 -4 -15 -9 0 -16 7 -16 15 0 8 -4 15 -9 15 -16 0 -22 -32 -9
-48 10 -12 10 -16 1 -19 -14 -5 -5 -35 14 -46 7 -5 11 -12 8 -18 -4 -5 -1 -9
5 -9 6 0 15 -11 22 -24 9 -22 12 -23 26 -10 8 8 17 12 20 9 4 -3 1 -9 -5 -13
-14 -9 -6 -51 11 -54 6 0 16 -2 23 -2 6 -1 23 -14 38 -29 26 -25 34 -27 106
-27 80 0 92 -5 96 -45 1 -11 3 -33 5 -50 2 -17 11 -33 21 -37 9 -4 17 -15 17
-25 0 -15 2 -16 10 -3 7 10 13 11 18 5 4 -6 18 -12 32 -12 14 -1 35 -14 47
-28 12 -14 29 -25 38 -25 9 0 31 -11 48 -24 38 -28 73 -40 81 -27 3 5 35 7 70
4 38 -3 73 0 85 7 12 6 35 13 51 15 17 2 44 14 62 26 20 14 48 24 77 25 25 1
54 2 63 3 12 1 15 6 11 19 -6 14 -4 15 8 5 11 -9 18 -8 33 3 15 10 16 14 5 16
-30 3 -34 4 -46 11 -7 5 -13 4 -13 -1 0 -5 -13 -7 -30 -4 -16 2 -30 8 -30 12
0 6 -41 7 -47 0 -2 -1 -20 -3 -40 -5 -21 -2 -72 -6 -113 -11 -41 -4 -90 -7
-107 -7 -18 0 -33 -5 -33 -11 0 -6 -7 -3 -14 7 -13 17 -50 18 -76 2 -6 -3 -13
2 -17 12 -4 10 -20 30 -36 45 -16 15 -26 31 -23 36 3 5 -1 9 -9 9 -8 0 -15 -3
-15 -7 0 -4 -11 -5 -25 -2 -14 2 -22 8 -19 13 3 5 0 9 -6 9 -7 0 -10 6 -7 13
2 6 0 21 -6 32 -5 11 -7 17 -3 13 4 -3 19 0 33 7 22 12 29 11 48 -1 13 -8 25
-25 29 -37 3 -11 8 -18 12 -15 3 4 13 1 21 -7 18 -18 107 -45 149 -45 17 0 64
7 103 16 53 12 76 23 87 39 8 12 14 27 13 31 -4 18 14 69 29 81 11 10 21 9 43
-3 16 -8 32 -15 36 -15 24 -4 34 -12 23 -19 -16 -10 15 -39 37 -35 10 2 47 9
83 16 36 6 75 20 86 31 15 13 37 19 72 20 43 0 51 3 56 21 3 12 1 36 -4 52 -6
17 -15 49 -20 72 -6 23 -17 49 -25 57 -8 8 -15 18 -15 21 0 4 -18 25 -40 47
-22 22 -37 44 -34 49 3 5 1 9 -4 9 -5 0 -19 9 -32 20 -13 11 -40 25 -61 30
-21 6 -44 16 -51 23 -7 7 -40 21 -73 31 -33 9 -78 23 -100 31 -77 26 -225 41
-225 24 0 -5 -7 -9 -16 -9 -9 0 -12 5 -8 12 5 7 3 8 -5 3 -7 -4 -11 -16 -8
-26 3 -11 0 -19 -8 -19 -7 0 -15 8 -18 19 -5 20 -47 32 -69 21z m353 -353
c-10 -9 -11 -8 -5 6 3 10 9 15 12 12 3 -3 0 -11 -7 -18z m-776 -53 c0 -5 -7
-10 -16 -12 -9 -1 -16 4 -16 11 0 8 7 14 16 12 9 -1 16 -6 16 -11z m335 -314
c0 -5 -2 -10 -4 -10 -3 0 -8 5 -11 10 -3 6 -1 10 4 10 6 0 11 -4 11 -10z"/>
<path d="M5620 6200 c0 -5 7 -7 15 -4 8 4 15 8 15 10 0 2 -7 4 -15 4 -8 0 -15
-4 -15 -10z"/>
<path d="M2593 5795 c0 -13 3 -22 7 -20 4 3 10 -2 14 -10 9 -24 26 -17 26 10
0 16 -6 25 -16 25 -8 0 -12 5 -9 10 3 6 0 10 -8 10 -9 0 -14 -10 -14 -25z"/>
<path d="M2368 5703 c7 -11 6 -25 -1 -40 -8 -18 -7 -32 6 -59 9 -19 17 -45 17
-59 0 -13 5 -36 11 -52 6 -15 15 -52 20 -82 5 -30 12 -57 16 -60 5 -3 14 -18
22 -33 9 -18 22 -28 36 -28 29 0 51 -25 37 -42 -13 -16 6 -75 37 -115 35 -45
87 -126 110 -170 11 -23 40 -55 63 -71 26 -18 53 -49 68 -78 14 -27 27 -51 30
-54 16 -15 46 -68 50 -90 4 -20 12 -26 39 -28 29 -3 33 -1 26 15 -4 10 -20 54
-37 98 -32 88 -84 227 -119 320 -12 33 -25 62 -28 65 -3 3 -33 37 -65 75 -33
39 -84 94 -113 124 -29 29 -53 58 -53 64 0 9 -80 173 -145 298 -5 10 -16 19
-23 19 -9 0 -10 -5 -4 -17z"/>
<path d="M5470 5709 c0 -5 -4 -8 -8 -5 -5 3 -9 -1 -9 -9 0 -8 9 -12 24 -11 24
3 45 16 24 16 -7 0 -9 5 -6 10 3 6 -1 10 -9 10 -9 0 -16 -5 -16 -11z"/>
<path d="M5570 5690 c0 -5 5 -10 11 -10 5 0 7 5 4 10 -3 6 -8 10 -11 10 -2 0
-4 -4 -4 -10z"/>
<path d="M3426 5556 c10 -8 21 -12 24 -10 5 6 -21 24 -34 24 -6 0 -1 -6 10
-14z"/>
<path d="M6840 5447 c-15 -13 -24 -30 -22 -41 2 -10 -1 -23 -7 -29 -6 -6 -11
-19 -11 -28 0 -9 -6 -19 -14 -22 -7 -3 -16 -19 -19 -36 -4 -18 -13 -31 -22
-31 -8 0 -14 -6 -12 -12 1 -7 -5 -11 -13 -10 -8 2 -12 0 -8 -4 4 -4 -2 -19
-13 -35 -15 -22 -17 -29 -7 -36 8 -4 19 -21 27 -38 7 -16 9 -27 5 -23 -4 5
-16 -6 -26 -22 -21 -36 -23 -43 -5 -35 6 4 4 0 -5 -8 -10 -8 -15 -17 -11 -20
3 -4 -7 -19 -22 -33 -26 -24 -27 -28 -12 -39 21 -15 22 -36 2 -29 -8 4 -15 1
-15 -5 0 -6 6 -11 13 -11 9 0 8 -3 -2 -9 -11 -7 -11 -9 0 -14 9 -3 5 -6 -7 -6
-12 -1 -24 -7 -27 -15 -4 -10 0 -12 14 -9 13 4 19 0 19 -12 0 -10 10 -27 23
-38 16 -15 17 -18 5 -14 -21 7 -24 -3 -6 -21 17 -17 2 -28 -17 -12 -16 13 -17
11 -17 -39 -1 -23 -1 -24 -14 -6 -7 10 -15 23 -18 29 -3 8 -7 7 -14 -2 -5 -7
-16 -10 -25 -7 -10 4 -20 -1 -27 -14 -13 -25 -2 -28 16 -3 11 14 13 15 14 1 0
-8 -5 -20 -12 -27 -9 -9 -6 -16 10 -30 25 -22 29 -37 7 -28 -9 3 -15 0 -15
-10 0 -9 5 -12 12 -8 7 4 8 3 4 -5 -6 -8 -11 -9 -20 -1 -10 7 -20 3 -40 -17
-15 -15 -23 -29 -17 -31 13 -4 -25 -42 -43 -42 -8 0 -18 -4 -21 -10 -3 -6 1
-7 9 -4 19 7 20 0 6 -27 -8 -15 -7 -19 5 -19 9 0 15 9 16 23 l0 22 12 -23 c8
-19 8 -26 -4 -33 -10 -8 -8 -8 10 -4 23 7 23 7 5 -17 -26 -35 -58 -30 -62 10
-4 41 -17 41 -18 1 -1 -17 -7 -36 -15 -41 -11 -8 -11 -9 2 -5 11 4 20 -3 28
-19 10 -23 9 -24 -13 -18 -18 4 -25 1 -29 -16 -3 -12 -3 -19 0 -16 9 8 34 -15
27 -25 -3 -5 4 -9 15 -9 23 0 27 10 10 27 -9 9 -7 10 10 6 19 -5 22 -12 21
-40 -1 -5 -10 -7 -20 -5 -11 2 -20 -2 -20 -7 0 -6 5 -11 10 -11 6 0 10 -6 10
-14 0 -16 -27 -29 -42 -20 -6 4 -8 -2 -3 -17 4 -18 4 -20 -4 -10 -7 11 -13 12
-23 3 -12 -9 -14 -7 -10 16 3 23 0 28 -19 29 -24 2 -45 26 -28 31 5 2 16 -2
24 -8 10 -9 15 -9 15 -1 0 19 -50 25 -68 7 -15 -15 -15 -16 0 -16 9 0 20 -9
23 -20 3 -11 11 -20 16 -20 6 0 7 5 4 10 -3 6 -2 10 3 10 6 0 9 -11 8 -25 0
-16 -6 -23 -13 -20 -7 2 -13 -3 -13 -11 0 -8 -3 -13 -7 -11 -5 3 -13 -1 -20
-8 -9 -10 -7 -14 13 -18 15 -3 24 0 24 8 0 7 7 16 16 19 13 5 14 4 6 -7 -8
-10 -7 -21 4 -42 8 -16 13 -37 11 -47 -4 -15 -1 -17 20 -12 16 4 28 2 34 -7
12 -19 12 11 0 43 -6 16 -4 33 5 53 l14 30 -5 -33 c-3 -22 -1 -31 6 -26 7 4 9
0 5 -14 -6 -17 0 -23 29 -33 19 -7 35 -17 35 -22 0 -5 -8 -6 -17 -3 -15 5 -14
3 2 -9 18 -15 20 -14 28 10 5 14 13 25 18 25 6 0 7 5 4 10 -9 14 6 12 35 -6
l25 -15 -26 5 c-30 6 -43 -2 -29 -18 12 -16 1 -29 -34 -41 -34 -12 -45 -32
-20 -37 17 -3 17 -4 0 -20 -10 -10 -13 -18 -7 -18 5 0 16 8 23 19 8 12 24 18
43 16 26 -1 30 -5 28 -31 l-1 -29 11 25 c7 14 20 33 30 42 9 10 17 25 17 33 0
9 6 12 15 9 20 -8 19 -33 -3 -53 -10 -9 -17 -22 -16 -28 1 -7 2 -18 3 -24 0
-5 5 -8 11 -4 5 3 7 12 3 20 -3 8 0 15 6 15 6 0 11 -5 11 -11 0 -5 3 -8 8 -5
4 2 16 -2 27 -10 10 -8 13 -14 7 -14 -7 0 -12 -9 -12 -20 0 -11 5 -20 10 -20
18 0 11 -30 -7 -31 -10 0 -13 -3 -7 -5 6 -3 10 -20 9 -38 l-3 -34 31 16 c17 8
40 23 51 33 12 10 31 26 44 36 19 15 23 28 23 83 1 87 21 177 73 334 56 169
61 201 40 251 -9 22 -19 63 -22 90 -5 54 -6 446 0 560 3 77 -23 234 -48 284
-8 17 -16 31 -17 31 -1 0 -13 -11 -27 -23z m-150 -467 c0 -5 -5 -10 -11 -10
-5 0 -7 5 -4 10 3 6 8 10 11 10 2 0 4 -4 4 -10z m-29 -290 c6 0 7 -4 4 -10 -3
-5 -14 -10 -25 -10 -14 0 -17 -5 -12 -22 3 -13 1 -19 -5 -15 -21 13 -22 45 -2
50 11 3 20 13 20 24 1 16 2 16 6 1 2 -10 9 -18 14 -18z m-81 -20 c0 -5 -2 -10
-4 -10 -3 0 -8 5 -11 10 -3 6 -1 10 4 10 6 0 11 -4 11 -10z m-58 -148 c-18
-16 -29 -32 -25 -35 3 -4 1 -7 -5 -7 -17 0 -15 27 3 34 8 3 15 12 15 21 0 9 9
15 22 15 20 0 19 -2 -10 -28z m313 -42 c3 -5 1 -10 -4 -10 -6 0 -11 5 -11 10
0 6 2 10 4 10 3 0 8 -4 11 -10z m15 -30 c0 -5 -4 -10 -10 -10 -5 0 -10 5 -10
10 0 6 5 10 10 10 6 0 10 -4 10 -10z m-161 -64 c-3 -3 -11 5 -18 17 -13 21
-12 21 5 5 10 -10 16 -20 13 -22z m128 4 c-3 -11 -2 -18 3 -15 4 3 10 -2 14
-10 5 -13 0 -17 -20 -14 -4 0 -11 -5 -15 -13 -6 -8 -8 3 -7 29 2 28 8 43 17
43 8 0 11 -7 8 -20z m-287 -5 c0 -13 -4 -14 -22 -4 -34 17 -34 19 -5 19 18 0
27 -5 27 -15z m328 3 c19 -19 14 -30 -8 -18 -11 6 -20 15 -20 20 0 14 14 12
28 -2z m-188 -6 c0 -13 -12 -22 -22 -16 -10 6 -1 24 13 24 5 0 9 -4 9 -8z m35
-22 c3 -5 -1 -10 -9 -10 -9 0 -16 5 -16 10 0 6 4 10 9 10 6 0 13 -4 16 -10z
m-20 -52 c7 -4 10 -18 8 -31 -4 -18 0 -23 17 -23 20 0 20 1 4 13 -16 12 -12
18 10 14 5 -1 6 5 3 14 -4 8 -5 15 -3 15 3 0 12 3 22 7 13 5 15 3 9 -8 -8 -12
-6 -12 8 0 22 17 34 7 17 -14 -13 -15 -8 -19 23 -16 9 1 17 -2 17 -8 0 -6 -7
-8 -15 -5 -12 5 -14 2 -8 -12 6 -17 5 -17 -10 -5 -14 11 -21 11 -43 -4 -14 -9
-34 -15 -44 -12 -13 3 -16 0 -12 -16 3 -11 13 -22 23 -24 26 -7 31 -30 8 -36
-12 -3 -19 0 -19 9 0 8 -4 14 -10 14 -5 0 -7 -8 -3 -17 4 -12 -4 -9 -23 10
-20 19 -25 30 -17 35 20 13 34 61 23 82 -5 10 -10 27 -9 37 0 14 2 15 6 3 3
-8 11 -18 18 -22z m-205 -74 c0 -8 -5 -12 -10 -9 -6 4 -8 11 -5 16 9 14 15 11
15 -7z m285 -4 c3 -5 -1 -10 -9 -10 -9 0 -16 5 -16 10 0 6 4 10 9 10 6 0 13
-4 16 -10z m-215 -10 c0 -5 -4 -10 -10 -10 -5 0 -10 5 -10 10 0 6 5 10 10 10
6 0 10 -4 10 -10z m94 -47 c3 -7 4 -13 2 -13 -6 0 -46 38 -46 44 0 10 39 -17
44 -31z m-144 3 c0 -3 -4 -8 -10 -11 -5 -3 -10 -1 -10 4 0 6 5 11 10 11 6 0
10 -2 10 -4z m-110 -32 c0 -3 -7 -12 -15 -20 -16 -17 -18 -14 -9 10 6 15 24
23 24 10z m347 -54 c-1 -15 -4 -17 -15 -8 -10 9 -16 9 -22 -1 -6 -10 -12 -11
-26 -2 -11 6 -14 11 -6 11 7 0 20 7 28 15 18 18 43 9 41 -15z m-247 0 c0 -5
-7 -10 -16 -10 -8 0 -12 5 -9 10 3 6 10 10 16 10 5 0 9 -4 9 -10z m160 -5 c0
-13 -4 -14 -20 -5 -11 6 -20 13 -20 15 0 3 9 5 20 5 11 0 20 -7 20 -15z m-255
-5 c3 -5 -1 -10 -10 -10 -9 0 -13 5 -10 10 3 6 8 10 10 10 2 0 7 -4 10 -10z
m225 -21 c0 -11 -4 -17 -10 -14 -5 3 -10 13 -10 21 0 8 5 14 10 14 6 0 10 -9
10 -21z"/>
<path d="M5216 4966 c8 -20 -13 -56 -32 -56 -20 0 -13 -20 11 -34 19 -11 30
-19 59 -43 10 -8 17 -9 21 -3 4 6 11 8 16 5 5 -4 9 -1 9 4 0 6 7 11 15 11 18
0 20 16 3 24 -10 5 -10 7 0 12 20 9 14 23 -10 22 -41 -2 -58 2 -58 11 0 5 8
12 18 14 15 4 15 5 -2 6 -16 1 -17 3 -5 18 12 15 12 16 -3 10 -10 -3 -18 -2
-18 3 0 6 -7 10 -15 10 -8 0 -12 -6 -9 -14z"/>
<path d="M6600 4890 c-9 -6 -10 -10 -3 -10 6 0 15 5 18 10 8 12 4 12 -15 0z"/>
<path d="M5326 4771 c-4 -7 -5 -15 -2 -18 9 -9 19 4 14 18 -4 11 -6 11 -12 0z"/>
<path d="M5350 4772 c0 -12 19 -26 26 -19 2 2 -2 10 -11 17 -9 8 -15 8 -15 2z"/>
<path d="M5326 4704 c-9 -8 -20 -13 -25 -10 -5 3 -11 -3 -14 -14 -3 -13 -14
-20 -29 -20 -13 0 -18 -4 -12 -8 14 -10 13 -52 -2 -52 -7 0 -15 6 -17 13 -4 9
-7 9 -14 0 -11 -15 -56 -5 -50 11 3 6 -2 17 -9 24 -12 10 -14 10 -14 -2 0 -19
-36 -40 -55 -32 -8 3 -17 -3 -20 -14 -3 -10 -21 -32 -40 -49 -19 -17 -35 -33
-35 -37 0 -11 -54 -63 -60 -59 -4 2 -13 -7 -20 -21 -8 -13 -18 -23 -24 -21 -6
2 -33 -11 -60 -30 -27 -19 -55 -32 -63 -29 -7 3 -13 1 -13 -5 0 -7 -11 -9 -27
-6 -112 23 -143 32 -186 54 -28 14 -62 27 -76 30 -14 2 -30 8 -36 13 -17 14
-81 22 -114 15 -18 -4 -33 -15 -36 -26 -20 -61 47 -128 176 -181 52 -21 98
-38 102 -38 10 0 48 -29 97 -74 77 -71 198 -138 273 -151 33 -6 96 3 147 23 8
3 19 6 23 6 21 2 115 98 153 156 24 36 68 92 98 125 81 88 90 111 82 218 -3
55 -14 106 -26 134 -11 25 -17 50 -13 57 4 6 -1 5 -10 -3 -15 -12 -17 -11 -17
3 0 20 -14 21 -34 0z"/>
<path d="M6498 4633 c7 -3 16 -2 19 1 4 3 -2 6 -13 5 -11 0 -14 -3 -6 -6z"/>
<path d="M6470 4590 c0 -5 5 -10 11 -10 5 0 7 5 4 10 -3 6 -8 10 -11 10 -2 0
-4 -4 -4 -10z"/>
<path d="M8271 4376 c-13 -14 -18 -26 -13 -30 6 -3 20 7 32 24 25 36 13 40
-19 6z"/>
<path d="M6321 4383 c-1 -7 -10 -13 -21 -13 -23 0 -17 -27 8 -33 15 -3 15 -5
-2 -12 -12 -5 -21 -3 -27 6 -6 10 -11 11 -19 3 -8 -8 -4 -16 16 -29 26 -17 28
-17 41 1 16 23 17 44 1 44 -10 0 -9 3 1 9 7 5 11 15 8 22 -4 10 -6 10 -6 2z"/>
<path d="M8188 4278 c-21 -24 -38 -51 -38 -60 0 -9 -4 -20 -10 -23 -5 -3 -17
-23 -25 -43 -53 -123 -73 -160 -170 -318 -52 -84 -179 -234 -240 -285 -11 -9
-32 -29 -46 -45 -14 -16 -42 -40 -61 -53 -19 -14 -42 -42 -53 -63 -10 -22 -24
-37 -31 -34 -7 3 -15 -1 -18 -9 -3 -9 0 -12 10 -8 10 4 12 0 8 -11 -7 -18 -7
-18 -49 -21 -41 -3 -79 -25 -134 -78 -40 -38 -103 -79 -136 -87 -30 -8 -80
-33 -97 -49 -11 -11 -39 -24 -64 -31 -24 -7 -77 -34 -116 -61 -40 -27 -78 -49
-83 -49 -6 0 -46 -18 -90 -40 -44 -22 -85 -40 -91 -40 -6 0 -19 -9 -29 -20
-10 -11 -26 -20 -35 -20 -10 0 -29 -9 -42 -20 -23 -18 -163 -87 -251 -124 -20
-8 -37 -19 -37 -25 0 -13 -60 -42 -71 -35 -5 3 -9 -2 -9 -10 0 -10 -6 -13 -15
-10 -8 4 -17 -1 -21 -9 -3 -9 -18 -19 -33 -22 -16 -3 -38 -15 -49 -25 -12 -11
-25 -20 -29 -20 -5 0 -15 -9 -23 -20 -8 -11 -20 -20 -27 -20 -6 0 -17 -8 -22
-17 -6 -10 -11 -14 -11 -10 0 5 -7 1 -16 -7 -10 -11 -25 -14 -42 -10 -15 3
-22 2 -16 -3 7 -5 6 -16 -3 -33 -7 -14 -13 -21 -13 -16 0 5 -6 4 -12 -1 -7 -6
-26 -13 -43 -17 -16 -4 -38 -15 -47 -24 -44 -42 -54 -50 -75 -56 -13 -4 -23
-12 -23 -17 0 -5 -8 -9 -18 -9 -9 0 -23 -9 -30 -20 -7 -11 -19 -20 -28 -20
-20 0 -133 -60 -156 -82 -10 -10 -18 -23 -18 -29 0 -5 -4 -8 -9 -4 -5 3 -13 0
-16 -6 -4 -5 -13 -8 -21 -5 -19 7 -76 -44 -69 -62 3 -9 0 -12 -9 -9 -10 4 -13
1 -9 -9 6 -16 -12 -20 -22 -4 -4 6 -12 5 -21 -4 -20 -20 -18 -28 6 -21 11 4
20 2 20 -4 0 -6 -4 -11 -9 -11 -16 0 -6 -35 12 -42 21 -9 22 -34 2 -42 -12 -4
-15 -16 -11 -48 3 -29 0 -51 -11 -67 -14 -23 -14 -25 3 -38 15 -11 16 -16 6
-22 -19 -12 12 -86 32 -78 8 3 17 -1 20 -9 5 -13 30 -13 74 -2 4 1 24 -1 44
-5 36 -8 57 -35 43 -57 -3 -5 0 -10 7 -10 9 0 12 -13 10 -45 -2 -25 -8 -45
-13 -45 -5 0 -9 -11 -9 -25 0 -14 -4 -33 -9 -43 -6 -9 -13 -34 -16 -54 -3 -21
-10 -38 -15 -38 -6 0 -10 -10 -9 -22 0 -13 -2 -36 -6 -53 -3 -16 -7 -50 -7
-75 -1 -25 -7 -48 -12 -52 -7 -5 -7 -8 2 -8 6 0 12 -7 12 -15 0 -8 -7 -15 -16
-15 -9 0 -12 -5 -8 -12 4 -6 -1 -17 -11 -25 -17 -12 -17 -13 -2 -13 9 0 17 -5
17 -11 0 -5 5 -7 11 -3 8 5 8 9 -1 14 -9 5 -9 9 -1 14 6 4 12 2 12 -3 1 -6 2
-17 3 -23 1 -7 -1 -23 -5 -35 -7 -18 -5 -21 8 -16 13 5 14 3 4 -15 -10 -19 -9
-21 6 -16 16 5 16 4 2 -8 -21 -18 -4 -87 32 -127 15 -17 25 -32 23 -33 -2 -2
-5 -20 -7 -41 -4 -30 -2 -35 9 -26 11 9 15 7 20 -6 4 -10 1 -21 -6 -25 -11 -7
-11 -12 -2 -22 11 -14 10 -47 -2 -66 -5 -9 29 -42 44 -42 15 0 22 -19 12 -36
-8 -15 -11 -15 -30 4 -12 12 -22 16 -24 10 -3 -8 -11 -7 -26 1 -14 8 -22 8
-22 1 0 -5 -3 -9 -7 -8 -5 0 -15 -1 -23 -4 -71 -25 -91 -28 -126 -20 -46 9
-42 10 -119 -8 -69 -15 -98 -16 -139 -6 -26 6 -28 5 -17 -8 7 -8 12 -25 11
-38 -5 -54 -4 -55 73 -63 39 -4 113 -8 162 -9 63 -2 98 -8 116 -19 24 -16 33
-18 101 -17 20 0 40 -4 43 -10 4 -6 18 -15 31 -20 15 -6 24 -18 24 -30 0 -12
5 -18 10 -15 14 9 12 -29 -2 -43 -7 -7 -20 -12 -30 -12 -11 0 -15 -5 -12 -15
4 -8 10 -13 14 -10 4 3 13 -2 20 -10 7 -8 16 -13 20 -10 5 3 11 1 15 -4 3 -5
-1 -13 -8 -18 -8 -4 -17 -19 -20 -33 -5 -19 0 -31 24 -52 l30 -28 2385 0 2384
0 0 1370 0 1369 -22 12 c-13 7 -48 36 -78 64 -74 69 -234 192 -285 217 -22 11
-49 28 -60 38 -52 45 -336 200 -367 200 -6 0 -70 29 -144 65 -74 36 -138 63
-143 61 -5 -3 -15 2 -22 11 -8 9 -36 27 -64 39 -54 25 -126 70 -265 164 -37
25 -137 58 -200 66 -92 12 -377 140 -461 208 -15 11 -51 35 -80 51 -63 36 -99
71 -99 97 0 10 12 46 26 81 14 34 27 70 29 79 2 10 18 38 35 63 42 61 34 77
-12 23z m-3009 -3869 c-5 -11 -16 -16 -24 -12 -19 7 -3 30 19 30 11 0 13 -5 5
-18z"/>
<path d="M6246 4285 c-4 -13 -2 -14 14 -5 23 13 26 20 6 20 -8 0 -16 -7 -20
-15z"/>
<path d="M6185 4232 c3 -8 5 -16 5 -18 0 -2 7 -4 16 -4 9 0 12 5 8 12 -5 7 0
9 14 6 11 -3 23 -1 25 6 3 7 -9 11 -34 11 -29 0 -38 -3 -34 -13z"/>
<path d="M6200 4190 c8 -5 11 -10 6 -10 -6 0 -5 -5 2 -12 15 -15 16 -32 2 -23
-5 3 -10 1 -10 -4 0 -16 16 -13 30 4 7 9 8 15 2 15 -5 0 -8 9 -5 20 4 16 0 20
-18 20 -19 0 -21 -2 -9 -10z"/>
<path d="M6271 4174 c0 -11 3 -14 6 -6 3 7 2 16 -1 19 -3 4 -6 -2 -5 -13z"/>
<path d="M3060 4097 c-171 -86 -237 -142 -332 -280 -49 -73 -117 -103 -238
-110 -8 0 -21 -6 -28 -14 -7 -7 -22 -13 -32 -13 -10 0 -20 -3 -22 -7 -1 -5
-28 -16 -58 -27 -30 -10 -89 -33 -130 -51 -41 -18 -95 -39 -119 -46 -24 -7
-54 -21 -67 -32 -13 -10 -28 -15 -34 -12 -6 3 -13 -1 -16 -9 -3 -9 -17 -16
-29 -16 -13 0 -31 -7 -39 -16 -9 -8 -21 -12 -26 -9 -15 10 -98 -16 -120 -37
-11 -10 -24 -18 -29 -18 -6 0 -16 -10 -23 -23 -9 -16 -22 -23 -43 -24 -47 0
-85 -14 -96 -34 -5 -11 -19 -19 -29 -19 -13 0 -20 -7 -20 -20 0 -11 -4 -20
-10 -20 -5 0 -10 8 -10 18 0 14 -2 14 -9 3 -5 -8 -7 -21 -3 -29 3 -10 1 -13
-6 -8 -15 9 -16 -6 -2 -22 7 -9 7 -9 -2 -2 -7 5 -20 10 -30 10 -10 0 -18 5
-18 11 0 8 -5 7 -16 -2 -13 -10 -17 -10 -25 2 -7 12 -9 12 -9 -1 0 -13 -1 -13
-10 0 -6 9 -10 11 -10 3 0 -7 -6 -10 -14 -7 -7 3 -21 -2 -29 -11 -9 -9 -19
-16 -22 -15 -25 1 -27 -3 -10 -17 14 -11 15 -14 4 -10 -9 3 -22 0 -28 -6 -9
-9 -11 -8 -6 6 4 10 2 17 -4 17 -6 0 -11 -6 -11 -13 0 -17 -47 -40 -55 -27 -8
13 -35 1 -35 -15 0 -8 7 -21 16 -29 13 -14 13 -16 1 -16 -15 0 -32 -27 -28
-43 1 -5 -3 -6 -9 -2 -21 13 -31 -7 -13 -27 15 -17 16 -21 3 -31 -8 -7 -15
-19 -15 -27 0 -8 -6 -14 -13 -12 -6 1 -12 -5 -12 -13 0 -8 4 -15 9 -15 12 0
21 -39 10 -46 -5 -3 -9 1 -9 8 0 10 -2 10 -9 -1 -5 -7 -14 -11 -20 -7 -7 5 -8
1 -4 -10 5 -14 2 -16 -14 -12 -11 3 -28 -1 -38 -8 -12 -9 -14 -14 -5 -14 9 0
8 -6 -5 -20 -21 -24 -40 -26 -31 -5 8 23 -7 18 -23 -6 -11 -19 -11 -21 3 -16
19 7 22 -9 4 -17 -7 -3 -3 -3 8 -1 16 4 23 0 27 -16 4 -15 2 -19 -9 -15 -8 3
-14 1 -14 -4 0 -6 -7 -10 -16 -10 -8 0 -13 -4 -10 -8 3 -5 -5 -8 -17 -8 -13 1
-23 -6 -25 -17 -2 -11 -12 -27 -23 -38 -19 -19 -19 -19 -19 3 0 20 -1 21 -20
3 -11 -10 -17 -21 -15 -25 3 -4 -2 -10 -10 -14 -8 -3 -15 -12 -15 -20 0 -8 -8
-17 -18 -19 -15 -4 -15 -5 1 -6 11 0 21 7 24 17 3 14 15 19 51 20 l47 2 -33
-15 c-18 -8 -35 -21 -38 -30 -3 -8 -10 -12 -15 -9 -12 7 -51 -15 -44 -26 3 -5
-3 -18 -15 -30 l-20 -20 0 22 c0 21 -1 21 -17 5 -16 -16 -16 -19 -3 -27 12 -8
9 -10 -12 -10 -21 0 -28 -5 -28 -20 0 -11 5 -20 11 -20 5 0 8 4 5 9 -3 5 1 12
10 15 25 10 54 7 54 -5 0 -6 -6 -9 -14 -6 -8 3 -16 -2 -19 -13 -3 -10 -15 -20
-28 -22 -13 -1 -22 -5 -19 -8 3 -3 -6 -17 -20 -32 -21 -22 -27 -24 -36 -12
-10 13 -12 12 -18 -1 -3 -8 0 -15 7 -15 7 0 2 -8 -10 -18 l-23 -17 24 0 c13 0
23 2 21 5 -2 3 5 6 15 6 14 0 16 -3 8 -13 -6 -7 -17 -13 -25 -13 -7 0 -16 -7
-19 -15 -4 -8 -12 -15 -20 -15 -23 0 -34 -33 -16 -47 12 -9 13 -12 4 -13 -9 0
-11 -8 -8 -22 3 -13 3 -17 0 -10 -3 6 -11 9 -16 5 -7 -4 -9 2 -6 15 4 13 2 20
-4 16 -5 -3 -7 -16 -4 -28 2 -11 -1 -38 -8 -58 -9 -26 -10 -40 -3 -47 8 -8 5
-17 -10 -33 -21 -20 -21 -22 -5 -36 16 -13 15 -13 -3 -8 -19 6 -19 5 -2 -8 17
-13 17 -17 3 -50 -9 -21 -22 -36 -32 -36 -12 0 -14 -4 -7 -12 6 -7 11 -41 11
-75 2 -62 1 -63 -26 -64 l-27 0 24 -10 c23 -9 24 -10 5 -24 -10 -8 -24 -15
-30 -15 -14 0 -13 -32 1 -42 6 -4 2 -8 -7 -8 -10 0 -18 -3 -18 -6 0 -10 53
-54 65 -54 6 0 3 -5 -5 -10 -8 -5 -23 -7 -33 -4 -11 3 -17 0 -17 -10 0 -8 -7
-22 -16 -30 -12 -12 -12 -16 -2 -16 8 0 14 -9 15 -20 1 -11 -4 -19 -10 -17 -7
1 -11 -8 -10 -20 2 -13 -2 -23 -8 -23 -6 0 -8 -7 -5 -16 9 -23 -4 -64 -19 -64
-24 0 -26 -18 -8 -47 17 -25 17 -27 1 -20 -10 3 -20 2 -23 -3 -4 -6 -2 -10 2
-10 5 0 9 -9 10 -20 1 -11 -4 -20 -12 -20 -20 0 -12 -54 9 -58 18 -4 21 -18 7
-27 -12 -7 -11 -64 1 -71 4 -3 5 -11 1 -17 -4 -6 -8 -18 -9 -27 -10 -64 -17
-117 -17 -130 0 -8 -3 -17 -6 -20 -12 -10 -37 -65 -36 -80 0 -8 -7 -21 -17
-28 -10 -7 -18 -23 -17 -35 0 -12 3 -16 6 -9 2 6 9 12 14 12 15 0 10 -22 -8
-36 -14 -9 -15 -16 -7 -24 13 -13 7 -50 -9 -50 -10 0 -36 -30 -37 -42 0 -4 6
-6 12 -5 7 2 3 -1 -9 -7 -26 -11 -31 -36 -8 -36 8 0 15 -5 15 -11 0 -7 -10 -5
-25 5 -14 9 -25 15 -26 14 -6 -23 -8 -50 -3 -45 8 8 38 -21 40 -39 1 -8 -2
-14 -7 -14 -5 0 -9 5 -9 11 0 5 -4 8 -9 5 -4 -3 -6 -17 -3 -31 3 -16 0 -25 -9
-25 -10 0 -10 -3 -1 -12 22 -22 12 -35 -36 -44 -37 -7 -46 -13 -44 -27 2 -9
-1 -17 -5 -16 -20 3 -24 -2 -13 -16 10 -11 9 -18 -4 -30 -17 -18 -22 -40 -6
-30 11 7 2 -23 -12 -41 -10 -13 -38 -154 -38 -190 l0 -24 2163 0 2164 0 6 98
c10 138 16 182 33 214 19 38 93 72 134 63 43 -9 180 5 180 19 0 6 7 24 15 40
9 16 13 31 11 34 -3 2 -30 6 -61 7 -31 2 -63 9 -71 16 -16 13 -90 5 -111 -13
-7 -6 -13 -8 -13 -5 0 3 -23 -1 -50 -9 -65 -19 -92 -12 -88 24 2 20 13 32 41
45 36 17 37 18 37 72 0 55 -22 127 -37 124 -10 -3 -44 11 -60 23 -8 7 -9 17
-3 34 8 19 6 26 -10 34 -15 8 -20 21 -20 50 0 40 23 75 99 149 l24 23 -11 114
c-7 62 -16 124 -21 137 -13 33 -32 237 -32 327 1 103 9 187 21 235 33 134 80
349 80 373 0 15 8 56 19 92 10 36 21 95 25 132 6 56 13 72 43 107 19 23 52 50
72 61 20 10 56 39 81 64 24 25 49 46 56 46 6 0 14 9 17 20 5 19 5 19 -33 0
-24 -12 -41 -16 -45 -10 -4 6 -11 8 -16 5 -5 -4 -9 -1 -9 5 0 7 -7 10 -14 7
-10 -4 -13 -1 -10 8 4 10 -2 12 -32 5 -22 -5 -45 -5 -55 1 -10 5 -22 8 -26 7
-13 -4 -76 25 -95 44 -10 10 -24 18 -32 18 -8 0 -23 11 -34 25 -11 14 -24 25
-28 25 -14 0 -90 73 -97 94 -4 10 -10 16 -14 12 -4 -3 -14 5 -22 18 -9 13 -38
48 -64 77 -60 67 -69 79 -63 79 2 0 -12 16 -31 36 -19 20 -31 39 -26 43 4 3
14 18 20 33 11 25 10 26 -23 32 -32 7 -48 25 -21 27 6 0 -9 10 -36 22 l-47 22
15 28 c14 27 14 28 -8 21 -31 -9 -34 -14 -17 -24 13 -8 12 -10 -2 -10 -9 0
-21 6 -25 14 -4 8 -10 14 -13 14 -16 -3 -50 15 -50 27 0 7 -13 19 -30 27 -16
7 -30 16 -30 21 0 4 -16 15 -35 24 -19 9 -35 22 -35 29 0 7 -12 11 -31 10 -18
-1 -33 3 -36 11 -3 7 -12 13 -20 13 -8 0 -12 4 -9 9 3 5 -2 8 -12 7 -9 0 -16
5 -14 12 1 6 -6 12 -15 12 -15 0 -15 2 2 14 18 13 18 14 -4 25 -25 14 -44 5
-21 -9 11 -7 11 -10 2 -10 -7 0 -18 5 -25 10 -7 6 -20 16 -29 23 -19 13 -29
73 -12 70 25 -4 8 27 -18 32 -27 6 -110 89 -129 130 -5 11 -20 38 -34 60 -27
43 -55 102 -55 116 0 10 -41 39 -55 39 -5 -1 -39 -15 -75 -33z m-1325 -737 c3
-5 1 -10 -4 -10 -6 0 -11 5 -11 10 0 6 2 10 4 10 3 0 8 -4 11 -10z m-954 -887
c-12 -20 -14 -14 -5 12 4 9 9 14 11 11 3 -2 0 -13 -6 -23z m-84 -109 c-3 -3
-12 -4 -19 -1 -8 3 -5 6 6 6 11 1 17 -2 13 -5z m-182 -574 c3 -5 1 -10 -4 -10
-6 0 -11 5 -11 10 0 6 2 10 4 10 3 0 8 -4 11 -10z m-85 -230 c0 -5 -5 -10 -11
-10 -5 0 -7 5 -4 10 3 6 8 10 11 10 2 0 4 -4 4 -10z m0 -85 c0 -8 -7 -15 -15
-15 -13 0 -14 3 -3 15 16 18 18 18 18 0z m-47 -553 c-22 -5 -27 5 -12 21 12
13 15 13 20 -2 4 -10 1 -17 -8 -19z m4037 -490 c0 -19 -23 -31 -42 -21 -27 15
-22 29 12 29 17 0 30 -4 30 -8z"/>
<path d="M6330 4079 c0 -11 4 -18 10 -14 5 3 7 12 3 20 -7 21 -13 19 -13 -6z"/>
<path d="M6452 4016 c7 -8 15 -12 17 -11 5 6 -10 25 -20 25 -5 0 -4 -6 3 -14z"/>
<path d="M5690 3944 c-16 -9 -27 -10 -31 -3 -7 12 -48 -7 -62 -28 -4 -7 -15
-13 -22 -13 -8 0 -15 -4 -15 -8 0 -5 -8 -18 -17 -28 -21 -22 -69 -32 -57 -11
5 8 2 7 -10 -2 -11 -9 -48 -15 -109 -17 -191 -5 -231 -10 -277 -34 -25 -13
-49 -24 -55 -25 -5 -1 -19 -5 -30 -9 -129 -51 -158 -57 -219 -45 -169 33 -205
31 -336 -11 -83 -27 -150 -27 -201 -1 -22 12 -49 21 -60 21 -11 0 -17 5 -14
10 3 6 -1 10 -9 10 -8 0 -18 -4 -21 -10 -3 -5 -28 -12 -55 -16 -37 -5 -51 -12
-56 -26 -3 -11 -12 -17 -20 -14 -17 6 -29 -10 -12 -17 8 -4 4 -8 -9 -12 -25
-8 -29 -25 -14 -53 5 -9 12 -25 15 -35 3 -10 11 -15 17 -11 6 3 15 1 19 -6 7
-11 18 -11 62 0 108 26 171 21 283 -25 11 -4 24 -7 28 -6 5 1 7 -6 5 -16 -2
-10 -14 -20 -27 -21 -15 -2 -21 0 -17 7 5 7 -3 11 -20 11 -26 0 -27 -1 -11
-17 9 -10 32 -34 50 -53 40 -43 112 -100 125 -100 6 0 12 -7 16 -15 3 -8 13
-15 21 -15 9 0 14 -4 11 -8 -7 -11 20 -24 115 -56 124 -41 98 -41 499 -6 108
10 133 15 188 43 34 17 62 35 62 39 0 5 6 8 13 8 8 0 22 9 32 20 10 11 23 20
29 20 11 0 46 35 46 46 0 3 9 18 21 32 14 18 18 34 14 52 -4 17 -3 21 4 11 14
-22 27 -6 26 33 -1 19 3 34 9 33 5 -1 12 6 14 17 2 11 0 16 -7 12 -16 -10 -13
10 3 23 11 9 15 9 19 -1 4 -8 6 -7 6 5 1 9 -3 17 -9 17 -5 0 -10 6 -10 13 0
16 67 40 72 25 2 -5 13 0 26 12 12 11 22 18 22 14 0 -4 8 0 18 9 9 8 43 22 74
30 31 8 71 25 89 38 20 14 34 19 36 12 3 -8 12 -7 30 2 23 12 28 12 39 -3 12
-15 13 -13 14 15 0 26 -5 34 -24 39 -14 3 -30 3 -37 -2 -7 -4 -9 -3 -5 4 3 6
-2 13 -11 15 -17 4 -17 5 0 6 9 0 17 8 17 17 0 9 -7 14 -17 12 -27 -4 -43 10
-43 38 0 27 -24 33 -34 9 -5 -13 -10 -14 -27 -4 -12 6 -24 7 -28 3 -9 -13 -39
-16 -46 -5 -3 6 -12 8 -19 5 -8 -3 -17 -1 -21 5 -8 14 -34 12 -65 -5z m-116
-292 c3 -5 -11 -14 -30 -21 -19 -7 -32 -16 -29 -21 3 -5 -7 -12 -22 -16 -15
-3 -36 -8 -45 -11 -13 -3 -18 1 -18 15 0 32 127 80 144 54z m-384 -47 c0 -8
-6 -15 -14 -15 -20 0 -29 17 -14 23 22 9 28 7 28 -8z m-80 -35 c0 -5 -7 -10
-15 -10 -8 0 -15 -4 -15 -10 0 -5 -8 -10 -19 -10 -10 0 -25 -7 -32 -16 -13
-15 -11 -17 18 -12 26 4 30 2 21 -9 -12 -15 -89 -14 -100 2 -5 6 -8 5 -8 -2 0
-7 -7 -13 -15 -13 -8 0 -15 -5 -15 -12 0 -9 -3 -9 -11 -1 -15 15 -3 34 16 26
8 -3 15 0 15 6 0 6 11 8 30 5 22 -5 30 -3 30 7 0 15 35 41 58 45 8 1 16 5 20
8 9 9 22 7 22 -4z m37 -16 c-3 -3 -12 -4 -19 -1 -8 3 -5 6 6 6 11 1 17 -2 13
-5z m-427 -24 c13 -22 3 -28 -36 -25 -45 5 -49 9 -29 29 18 18 53 16 65 -4z
m61 3 c12 -15 12 -16 -4 -10 -10 4 -16 3 -12 -3 3 -5 -4 -14 -15 -20 -13 -7
-20 -7 -20 0 0 5 5 10 11 10 8 0 8 4 0 14 -10 11 -8 15 6 19 10 3 19 5 19 6 1
0 8 -7 15 -16z m-151 -3 c0 -5 -4 -10 -10 -10 -5 0 -10 5 -10 10 0 6 5 10 10
10 6 0 10 -4 10 -10z m664 -8 c2 -4 -5 -9 -17 -9 -17 -2 -19 0 -7 7 18 12 18
12 24 2z m-394 -52 c0 -5 -2 -10 -4 -10 -3 0 -8 5 -11 10 -3 6 -1 10 4 10 6 0
11 -4 11 -10z"/>
<path d="M6540 3950 c0 -5 5 -10 11 -10 5 0 7 5 4 10 -3 6 -8 10 -11 10 -2 0
-4 -4 -4 -10z"/>
<path d="M5950 3926 c0 -2 7 -6 15 -10 8 -3 15 -1 15 4 0 6 -7 10 -15 10 -8 0
-15 -2 -15 -4z"/>
<path d="M6500 3921 c0 -5 5 -13 10 -16 6 -3 10 -2 10 4 0 5 -4 13 -10 16 -5
3 -10 2 -10 -4z"/>
<path d="M6486 3897 c4 -12 1 -17 -14 -17 -30 0 -43 -21 -26 -44 12 -17 14
-18 14 -3 0 11 8 17 24 17 14 0 32 7 40 15 12 12 20 13 35 5 27 -14 34 -13 19
4 -7 8 -16 12 -20 10 -3 -2 -9 2 -11 8 -4 10 -8 10 -16 -2 -8 -12 -13 -12 -31
5 -18 16 -20 16 -14 2z"/>
<path d="M6646 3873 c-6 -14 -5 -15 5 -6 7 7 10 15 7 18 -3 3 -9 -2 -12 -12z"/>
<path d="M6602 3858 c5 -15 28 -23 28 -10 0 5 -7 13 -16 16 -10 4 -14 1 -12
-6z"/>
<path d="M6535 3841 c-7 -12 12 -24 25 -16 11 7 4 25 -10 25 -5 0 -11 -4 -15
-9z"/>
<path d="M6643 3830 c4 -15 0 -20 -14 -20 -11 0 -19 -7 -19 -16 0 -14 3 -14
15 -4 8 7 15 9 15 6 0 -4 6 -1 14 6 9 8 11 17 5 24 -5 6 -6 14 -2 17 3 4 1 7
-6 7 -8 0 -11 -8 -8 -20z"/>
<path d="M3530 3810 c0 -5 5 -10 11 -10 5 0 7 5 4 10 -3 6 -8 10 -11 10 -2 0
-4 -4 -4 -10z"/>
<path d="M6535 3799 c-2 -3 9 -10 25 -16 24 -9 29 -8 33 7 3 13 -2 17 -25 16
-17 -1 -31 -3 -33 -7z"/>
<path d="M3563 3763 c-7 -3 -13 -13 -13 -24 0 -28 42 -25 56 5 10 21 8 23 -10
23 -12 0 -27 -2 -33 -4z m24 -18 c0 -8 -4 -15 -9 -15 -4 0 -8 7 -8 15 0 8 4
15 8 15 5 0 9 -7 9 -15z"/>
<path d="M6666 3745 c4 -8 8 -15 10 -15 2 0 4 7 4 15 0 8 -4 15 -10 15 -5 0
-7 -7 -4 -15z"/>
<path d="M6570 3736 c0 -2 7 -9 15 -16 12 -10 15 -10 15 4 0 9 -7 16 -15 16
-8 0 -15 -2 -15 -4z"/>
<path d="M6610 3716 c-8 -11 -18 -12 -36 -5 -17 6 -23 6 -19 -1 3 -6 -3 -10
-14 -10 -12 0 -22 -6 -22 -12 -5 -47 -7 -58 -13 -74 -6 -17 -6 -17 12 -1 10 9
22 17 26 17 12 0 -28 -49 -40 -50 -21 0 -59 -45 -59 -70 0 -18 -5 -24 -17 -22
-11 2 -18 -3 -18 -13 0 -8 -7 -15 -15 -15 -8 0 -15 -4 -15 -10 0 -5 -6 -10
-14 -10 -8 0 -18 -9 -21 -20 -9 -27 -23 -25 -31 5 -3 14 -11 25 -16 25 -6 0
-8 -7 -4 -15 3 -8 1 -15 -4 -15 -5 0 -12 -10 -16 -22 -4 -13 -12 -27 -18 -31
-7 -6 -4 -7 7 -3 10 3 16 2 13 -2 -2 -4 -1 -14 4 -21 6 -11 22 -7 74 18 36 17
70 31 75 31 4 0 32 21 61 48 48 43 110 144 110 179 0 7 4 13 9 13 12 0 9 33
-4 43 -12 9 15 28 28 20 11 -7 28 17 21 29 -8 13 -30 9 -44 -6z m-40 -70 c0
-6 -7 -3 -14 6 -7 10 -17 14 -21 10 -5 -4 -5 -1 -1 6 6 10 11 10 22 1 8 -6 14
-17 14 -23z m-268 -258 c-6 -6 -15 -8 -19 -4 -4 4 -1 11 7 16 8 5 17 7 19 4 3
-2 -1 -10 -7 -16z"/>
<path d="M5658 3653 c7 -3 16 -2 19 1 4 3 -2 6 -13 5 -11 0 -14 -3 -6 -6z"/>
<path d="M4301 3521 c-8 -5 -9 -11 -3 -15 5 -3 12 1 16 9 6 17 6 18 -13 6z"/>
<path d="M3930 3421 c0 -5 -3 -17 -6 -25 -5 -12 -2 -15 10 -10 18 7 21 29 6
39 -5 3 -10 2 -10 -4z"/>
<path d="M6237 3335 c-7 -16 8 -29 23 -20 15 9 12 35 -4 35 -8 0 -16 -7 -19
-15z"/>
<path d="M950 2970 c0 -5 5 -10 11 -10 5 0 7 5 4 10 -3 6 -8 10 -11 10 -2 0
-4 -4 -4 -10z"/>
<path d="M990 2875 c-9 -10 -9 -15 -1 -15 6 0 11 5 11 11 0 5 5 7 10 4 6 -3
10 -1 10 4 0 16 -16 13 -30 -4z"/>
<path d="M4755 2779 c-4 -6 -5 -12 -2 -15 2 -3 7 2 10 11 7 17 1 20 -8 4z"/>
<path d="M4650 2770 c0 -5 5 -10 11 -10 5 0 7 5 4 10 -3 6 -8 10 -11 10 -2 0
-4 -4 -4 -10z"/>
<path d="M895 2730 c4 -6 11 -8 16 -5 14 9 11 15 -7 15 -8 0 -12 -5 -9 -10z"/>
<path d="M865 2720 c-3 -5 -1 -10 4 -10 6 0 11 5 11 10 0 6 -2 10 -4 10 -3 0
-8 -4 -11 -10z"/>
<path d="M430 1600 c0 -5 5 -10 11 -10 5 0 7 5 4 10 -3 6 -8 10 -11 10 -2 0
-4 -4 -4 -10z"/>
<path d="M4343 818 c2 -25 37 -24 37 1 0 13 -6 19 -19 18 -12 -1 -19 -8 -18
-19z"/>
<path d="M120 429 c0 -5 5 -7 10 -4 6 3 10 8 10 11 0 2 -4 4 -10 4 -5 0 -10
-5 -10 -11z"/>
</g>
</svg>
